<svg xmlns="http://www.w3.org/2000/svg" aria-hidden="true" style="position:absolute;width:0;height:0;overflow:hidden"><defs><symbol id="icon-Star" viewBox="0 0 32 32"><path d="M6.693 0 17.35 10.184l14.321-3.491L21.487 17.35l3.491 14.321-10.657-10.184L0 24.978l10.184-10.657L6.693 0z"/></symbol><symbol id="icon-Arrow-1" viewBox="0 0 36 32"><path d="M1.062 17.414a2 2 0 0 1 0-2.828L13.79 1.858a2 2 0 1 1 2.828 2.828L5.304 16l11.314 11.314a2 2 0 1 1-2.828 2.828L1.062 17.414zM36 18H2.476v-4H36v4z"/></symbol><symbol id="icon-instagram" viewBox="0 0 32 32"><path d="M16 8.923a7.075 7.075 0 0 0-6.539 4.369 7.075 7.075 0 0 0 9.246 9.246 7.082 7.082 0 0 0 4.369-6.539 7.077 7.077 0 0 0-7.077-7.077zm0 12.308a5.228 5.228 0 0 1-4.833-3.229 5.225 5.225 0 0 1 1.134-5.7 5.228 5.228 0 0 1 8.047.793c.575.86.882 1.871.882 2.906-.004 1.386-.556 2.714-1.537 3.694s-2.308 1.532-3.694 1.537zM22.769.923H9.231A8.307 8.307 0 0 0 .924 9.23v13.538a8.307 8.307 0 0 0 8.307 8.307h13.538a8.307 8.307 0 0 0 8.307-8.307V9.23A8.307 8.307 0 0 0 22.769.923zm6.462 21.846a6.46 6.46 0 0 1-6.462 6.462H9.231a6.46 6.46 0 0 1-6.462-6.462V9.231a6.46 6.46 0 0 1 6.462-6.462h13.538a6.46 6.46 0 0 1 6.462 6.462v13.538zM25.538 8a1.54 1.54 0 0 1-2.626 1.089 1.535 1.535 0 0 1-.333-1.677 1.542 1.542 0 0 1 1.422-.949 1.538 1.538 0 0 1 1.539 1.539z"/></symbol><symbol id="icon-facebook" viewBox="0 0 19 32"><path d="M17.64 1.245a41.42 41.42 0 0 0-4.468-.23c-4.948 0-8.023 3.151-8.023 8.224v3.444H.993a.735.735 0 0 0-.735.735v5.664a.733.733 0 0 0 .735.735h4.156v11.358a.735.735 0 0 0 .735.735h5.853a.735.735 0 0 0 .736-.735V19.817h4.143a.733.733 0 0 0 .729-.64l.731-5.664a.724.724 0 0 0-.177-.581.725.725 0 0 0-.554-.25h-4.874V9.8c0-1.427.287-2.023 2.072-2.023h3a.735.735 0 0 0 .735-.735V1.973a.733.733 0 0 0-.64-.729zm-.831 5.061-2.266.001c-3.174 0-3.541 1.995-3.541 3.494v3.619a.735.735 0 0 0 .734.736h4.776l-.543 4.193h-4.231a.733.733 0 0 0-.735.735v11.355H6.622V19.084a.735.735 0 0 0-.735-.735H1.732v-4.193h4.155a.735.735 0 0 0 .735-.735V9.24c0-4.228 2.45-6.753 6.552-6.753 1.484 0 2.825.081 3.637.152v3.668z"/></symbol><symbol id="icon-call" viewBox="0 0 28 32"><path d="m25.655 22.957-.173-.216c-1.372-1.735-2.519-2.637-3.503-2.756-.851-.116-1.673.472-2.548 1.077l-.935.584a2.054 2.054 0 0 1-.327.132c-.547.155-1.927.245-2.708-.469-.909-.832-2.32-2.355-3.417-3.685-1.048-1.377-2.2-3.095-2.801-4.176-.508-.916-.083-2.197.201-2.672.056-.093.129-.185.211-.276l.824-.761c.012-.012.017-.027.028-.037.008-.008.021-.005.031-.012.744-.628 1.513-1.275 1.619-2.105.124-.976-.483-2.296-1.857-4.029l-.168-.216C9.281 2.249 7.995.6 6.147.872c-.727.108-1.376.356-2.045.776-.007.004-.011.012-.016.016s-.012.004-.017.008l-.932.691c-.009.005-.015.017-.024.025-.007.007-.017.008-.025.015a13.74 13.74 0 0 0-.323.28c-.945.843-2.992 3.289-1.596 7.815.901 2.923 2.76 6.333 5.388 9.883l-.025.021 1.449 1.805.012-.009c2.849 3.371 5.749 5.976 8.407 7.553 1.773 1.053 3.323 1.401 4.597 1.401 1.677 0 2.879-.603 3.481-.995l.379-.253c.043-.029.073-.071.104-.108l.825-.621c.009-.008.015-.019.024-.027.004-.004.011-.003.016-.007.587-.536.993-1.097 1.276-1.763.732-1.705-.579-3.339-1.445-4.42zm.465 4.002c-.22.517-.541.957-1.005 1.384l-1.228.924c-1.112.723-3.489 1.616-6.943-.435-2.657-1.577-5.583-4.244-8.461-7.712l-.779-.984c-2.711-3.595-4.617-7.037-5.517-9.955-1.169-3.793.304-5.828 1.291-6.707.1-.091.2-.175.299-.259l.004-.004.895-.663a4.067 4.067 0 0 1 1.628-.624c1.239-.187 2.247 1.12 2.987 2.069l.173.22C11 6.15 11.148 7.072 11.1 7.448c-.053.417-.688.952-1.248 1.423l-.079.067c-.003.003-.004.007-.007.009l-.012.007-.852.788c-.005.005-.008.012-.013.019s-.016.009-.021.016a3.007 3.007 0 0 0-.337.449c-.479.801-.931 2.457-.217 3.739.623 1.12 1.808 2.889 2.897 4.319 1.139 1.381 2.591 2.949 3.532 3.809.705.644 1.687.86 2.536.86.455 0 .872-.063 1.188-.152.167-.048.339-.117.516-.204.011-.005.016-.015.027-.021.005-.003.013-.001.019-.005l.989-.619c.032-.021.053-.049.08-.076l.012.013c.609-.423 1.304-.919 1.739-.847.385.047 1.26.417 2.799 2.36l.177.223c.749.935 1.776 2.215 1.297 3.333z"/></symbol></defs></svg>